# xmcd
#
# Track frame offsets: 
#        150
#        13120
#        23950
#        41500
#        57755
#        86100
#        102260
#        118942
#        141482
#        156372
#        173097
#        187977
#        204245
#        218750
#        237242
#        252725
#        274445
#        284135
#
# Disc length: 4042 seconds
#
# Revision: 1
# Processed by: cddbd v1.5PL3 Copyright (c) Steve Scherf et al.
# Submitted via: ExactAudioCopy v0.95a3
#
DISCID=160fc812
DTITLE=Green, Al - L-o-v-e - Essential Al Green, The
DYEAR=2002
DGENRE=Soul
TTITLE0=My Girl
TTITLE1=What Am I Gonna Do With Myself
TTITLE2=Light My Fire
TTITLE3=I've Never Found A Girl
TTITLE4=How Can You Mend A Broken Heart
TTITLE5=What A Wonderful Thing Love Is
TTITLE6=Judy
TTITLE7=Love And Happiness
TTITLE8=I'm Hooked On You
TTITLE9=Take Me To The River
TTITLE10=I Wish You Were Here
TTITLE11=Have A Good Time
TTITLE12=Let It Shine
TTITLE13=Could I Be The One
TTITLE14=I Tried To Tell Myself
TTITLE15=Belle
TTITLE16=Lean On Me
TTITLE17=Simply Beautiful
EXTD=
EXTT0=
EXTT1=
EXTT2=
EXTT3=
EXTT4=
EXTT5=
EXTT6=
EXTT7=
EXTT8=
EXTT9=
EXTT10=
EXTT11=
EXTT12=
EXTT13=
EXTT14=
EXTT15=
EXTT16=
EXTT17=
PLAYORDER=
